<?xml version="1.0" standalone="no"?>
<!DOCTYPE svg PUBLIC "-//W3C//DTD SVG 20010904//EN"
 "http://www.w3.org/TR/2001/REC-SVG-20010904/DTD/svg10.dtd">
<svg version="1.0" xmlns="http://www.w3.org/2000/svg"
 width="6000.000000pt" height="6000.000000pt" viewBox="0 0 6000.000000 6000.000000"
 preserveAspectRatio="xMidYMid meet">

<g transform="translate(0.000000,6000.000000) scale(0.100000,-0.100000)"
fill="#fff" stroke="none">
<path d="M38830 54864 c-87 -6 -276 -25 -390 -40 -377 -49 -657 -103 -1100
-214 -50 -12 -210 -57 -245 -68 -16 -5 -50 -15 -75 -22 -283 -81 -888 -302
-1170 -427 -30 -13 -68 -30 -85 -38 -16 -7 -64 -29 -105 -47 -41 -19 -100 -45
-130 -59 -68 -30 -482 -238 -610 -306 -79 -42 -198 -109 -448 -254 -18 -11
-104 -63 -190 -116 -955 -588 -1835 -1326 -2522 -2117 -207 -237 -539 -661
-701 -896 -280 -403 -480 -724 -716 -1150 -75 -135 -313 -608 -368 -730 -21
-47 -51 -113 -66 -148 -16 -34 -29 -64 -29 -67 0 -2 -14 -34 -31 -72 -38 -85
-38 -85 -89 -213 -47 -117 -50 -127 -75 -190 -10 -25 -21 -54 -25 -65 -5 -11
-20 -54 -35 -95 -14 -41 -31 -85 -36 -98 -13 -32 -109 -321 -119 -357 -4 -16
-24 -84 -44 -150 -20 -66 -41 -138 -47 -160 -6 -22 -17 -60 -24 -85 -17 -56
-78 -310 -100 -410 -9 -41 -20 -93 -25 -115 -5 -22 -16 -76 -25 -120 -9 -44
-20 -100 -25 -125 -5 -25 -12 -65 -15 -90 -3 -25 -10 -67 -15 -95 -13 -72 -37
-244 -49 -355 -6 -52 -18 -153 -26 -225 -39 -351 -37 -1126 5 -1440 5 -38 12
-100 15 -137 11 -112 -32 -103 472 -103 288 0 479 4 558 13 396 42 440 48 675
88 206 36 371 71 605 131 255 65 628 182 850 268 411 159 599 242 940 415 934
473 1761 1069 2563 1844 84 81 406 423 472 501 19 23 87 102 150 176 463 538
982 1291 1323 1919 23 41 56 102 74 135 69 125 321 640 375 765 11 25 26 61
35 80 8 19 19 44 23 55 5 11 21 47 35 80 28 63 120 295 150 380 10 28 22 55
25 60 4 6 10 19 13 30 3 11 24 72 47 135 23 63 46 129 50 145 5 17 16 50 25
75 20 53 51 151 111 355 71 241 105 371 159 600 30 126 60 270 75 355 6 36 15
83 20 105 38 174 95 595 130 950 31 325 36 1030 9 1396 -17 245 -25 325 -33
337 -7 11 -76 13 -196 6z"/>
<path d="M37665 42940 c-44 -5 -145 -13 -225 -19 -281 -22 -500 -50 -920 -121
-30 -6 -77 -14 -105 -20 -27 -6 -84 -17 -125 -25 -41 -8 -106 -22 -145 -30
-38 -8 -90 -20 -115 -25 -25 -5 -76 -16 -115 -25 -38 -9 -88 -20 -110 -25 -22
-5 -74 -18 -115 -28 -41 -11 -127 -34 -190 -51 -186 -49 -223 -59 -255 -69
-16 -5 -48 -15 -70 -21 -62 -16 -216 -61 -260 -76 -22 -7 -101 -32 -175 -55
-235 -74 -632 -209 -785 -266 -22 -9 -49 -18 -60 -20 -11 -3 -29 -9 -40 -14
-55 -22 -107 -41 -175 -65 -41 -15 -84 -30 -95 -35 -11 -4 -39 -15 -62 -24
-24 -9 -62 -23 -85 -32 -24 -9 -52 -20 -63 -24 -11 -4 -69 -27 -130 -49 -118
-45 -191 -73 -295 -114 -36 -14 -141 -56 -235 -92 -93 -37 -253 -100 -355
-140 -347 -136 -415 -163 -565 -220 -82 -31 -166 -63 -185 -70 -77 -30 -287
-108 -310 -115 -14 -5 -77 -27 -140 -50 -133 -48 -283 -98 -390 -130 -41 -12
-93 -28 -115 -35 -22 -7 -60 -18 -85 -25 -64 -18 -140 -39 -175 -50 -165 -49
-488 -106 -711 -124 -158 -14 -204 -14 -375 -1 -207 15 -248 20 -484 66 -134
26 -197 40 -315 69 -67 16 -225 60 -250 69 -14 5 -59 19 -100 31 -107 32 -405
131 -540 180 -63 23 -126 45 -140 50 -40 12 -640 241 -705 269 -11 5 -40 16
-65 26 -25 10 -54 21 -65 26 -32 13 -501 197 -600 236 -49 19 -99 38 -110 43
-36 15 -147 58 -285 110 -74 29 -151 58 -170 65 -54 21 -307 114 -382 141 -38
13 -98 35 -135 49 -38 13 -108 38 -158 54 -49 17 -115 39 -145 50 -30 10 -116
38 -190 61 -74 24 -166 53 -205 65 -38 12 -97 30 -130 40 -33 9 -73 21 -90 26
-34 10 -109 31 -175 49 -25 7 -65 18 -90 25 -55 16 -434 109 -510 125 -30 7
-82 18 -115 25 -234 53 -697 125 -995 154 -232 24 -796 34 -1165 23 -140 -5
-594 -38 -705 -51 -47 -6 -128 -16 -180 -22 -235 -26 -727 -105 -925 -149 -22
-5 -74 -16 -115 -25 -262 -56 -493 -114 -686 -171 -44 -13 -84 -24 -89 -24 -9
0 -133 -37 -250 -75 -38 -13 -113 -37 -165 -53 -175 -56 -536 -187 -660 -239
-19 -8 -44 -19 -55 -24 -11 -4 -72 -29 -135 -55 -63 -25 -148 -62 -188 -80
-41 -19 -76 -34 -78 -34 -9 0 -301 -138 -454 -214 -268 -133 -393 -201 -761
-414 -334 -194 -770 -486 -1139 -765 -491 -371 -836 -672 -1296 -1132 -319
-319 -609 -634 -789 -856 -293 -363 -417 -523 -581 -754 -115 -161 -253 -364
-348 -513 -96 -149 -216 -343 -216 -349 0 -3 -8 -17 -19 -31 -21 -30 -161
-272 -161 -278 0 -3 -10 -21 -23 -42 -22 -34 -40 -67 -157 -287 -82 -152 -228
-450 -340 -692 -45 -97 -44 -94 -95 -208 -30 -65 -175 -414 -204 -490 -5 -11
-16 -37 -25 -58 -20 -47 -20 -74 2 -113 l17 -31 2865 443 c1576 243 2971 459
3100 478 4069 612 7184 205 9296 -1215 809 -544 1441 -1212 1944 -2054 112
-187 319 -598 413 -820 535 -1263 785 -2867 651 -4175 -161 -1577 -810 -2896
-2019 -4105 -361 -361 -788 -726 -1188 -1015 l-117 -85 6 -60 c3 -33 9 -64 14
-69 4 -4 104 -30 222 -56 1537 -347 2779 -882 3727 -1608 425 -326 841 -745
1160 -1170 733 -974 1235 -2255 1491 -3802 371 -2245 189 -4204 -542 -5820
-298 -660 -714 -1307 -1186 -1844 -61 -69 -68 -83 -60 -102 10 -21 13 -22 352
-27 187 -3 397 -10 466 -16 69 -6 184 -16 255 -21 254 -20 705 -84 910 -130
22 -4 67 -14 100 -20 126 -24 320 -71 535 -130 90 -25 224 -65 320 -97 58 -19
119 -38 135 -43 63 -17 369 -127 530 -190 55 -22 232 -93 250 -100 11 -5 61
-25 110 -45 112 -46 175 -73 197 -85 10 -6 22 -10 27 -10 5 0 45 -16 88 -36
43 -20 98 -44 123 -54 25 -10 74 -31 110 -48 36 -16 104 -46 153 -66 48 -20
108 -45 135 -57 26 -12 63 -28 82 -36 67 -28 75 -31 120 -51 39 -17 96 -40
175 -72 178 -71 235 -94 260 -105 17 -6 46 -18 65 -25 19 -6 44 -16 55 -21 33
-15 304 -109 405 -141 52 -16 127 -40 165 -52 39 -13 90 -29 115 -36 25 -7 65
-18 90 -25 68 -20 237 -62 315 -80 39 -8 88 -20 110 -25 36 -8 87 -18 260 -50
325 -61 882 -110 1235 -110 355 0 847 52 1175 125 39 9 90 20 115 25 146 31
433 117 630 190 47 17 96 35 110 39 14 5 66 25 115 46 754 314 1449 773 2190
1446 152 138 613 600 766 769 343 378 667 766 1004 1204 186 242 474 626 570
761 17 24 100 141 186 261 153 216 346 490 444 632 28 40 96 139 152 220 205
295 457 669 589 872 271 417 686 1106 894 1485 18 33 36 65 40 70 4 6 31 55
60 110 29 55 56 105 60 110 4 6 33 60 65 120 32 61 80 151 107 200 59 108 498
987 550 1100 20 45 64 138 97 209 34 70 61 129 61 131 0 2 15 36 34 77 61 133
83 182 140 313 31 72 60 137 65 146 5 8 63 148 130 310 67 161 126 303 131
314 42 101 197 495 235 599 54 151 106 290 117 316 6 14 14 36 18 50 5 14 38
111 75 215 60 171 88 255 183 550 29 90 29 90 10 112 -20 21 -20 22 26 155 69
197 226 669 286 858 29 91 58 183 65 205 7 22 23 74 35 115 12 41 29 95 36
120 8 25 21 68 29 95 46 155 65 216 80 270 9 33 21 74 26 90 24 83 85 302 100
360 6 22 15 56 21 75 12 38 25 86 38 140 4 19 22 89 40 155 18 66 36 136 40
155 5 19 16 64 25 100 10 36 21 81 25 100 4 19 18 73 29 120 12 47 29 114 37
150 9 36 19 81 24 100 5 19 16 67 25 105 9 39 20 86 25 105 4 19 16 71 25 115
9 44 20 96 25 115 5 19 16 71 25 115 9 44 21 94 26 111 5 17 9 39 9 49 0 10 7
48 15 84 8 36 19 86 24 111 5 25 16 79 25 120 29 142 59 295 66 345 5 28 16
91 25 140 10 50 21 114 25 144 5 29 13 74 18 100 6 25 15 78 21 116 6 39 16
99 22 135 13 74 23 141 38 252 5 43 15 95 20 115 6 21 11 55 11 75 0 20 4 58
9 85 10 49 32 201 51 353 6 47 15 121 21 165 6 44 15 118 20 165 4 47 15 144
24 215 9 72 20 177 24 235 5 58 14 155 20 215 38 376 61 716 81 1165 5 113 14
319 20 459 8 160 10 439 7 750 -4 459 -11 660 -37 1106 -6 94 -12 206 -14 250
-4 84 -20 277 -36 430 -5 50 -16 162 -25 250 -17 173 -29 272 -46 405 -6 47
-15 117 -19 155 -5 39 -16 117 -25 175 -9 58 -20 134 -25 170 -4 36 -13 94
-19 130 -6 36 -16 94 -22 130 -5 36 -17 103 -25 150 -8 47 -19 108 -24 135
-28 157 -82 432 -100 505 -5 19 -16 71 -25 115 -9 44 -20 96 -26 115 -5 19
-16 67 -24 105 -15 67 -35 148 -54 225 -5 19 -17 64 -26 100 -25 98 -36 140
-50 190 -7 25 -25 90 -40 145 -15 55 -31 111 -35 125 -5 14 -16 52 -25 85 -28
102 -64 217 -164 530 -18 55 -43 130 -57 168 -29 80 -65 181 -100 280 -23 64
-38 104 -64 172 -5 11 -19 49 -33 85 -36 92 -107 269 -122 305 -8 17 -41 95
-75 175 -134 312 -157 361 -331 715 -312 635 -701 1281 -1111 1848 -43 60 -76
113 -73 118 4 5 -22 46 -58 92 -35 45 -97 132 -138 192 -423 625 -1053 1341
-1674 1901 -418 377 -935 771 -1398 1064 -64 41 -136 87 -160 102 -23 15 -49
31 -57 35 -8 5 -66 39 -129 76 -248 149 -815 447 -1021 536 -30 14 -86 39
-125 57 -38 17 -99 44 -135 59 -36 15 -78 33 -95 40 -141 63 -477 192 -665
257 -63 21 -131 45 -150 53 -77 30 -432 139 -675 206 -22 6 -60 17 -85 24
-105 30 -372 95 -530 130 -41 9 -93 20 -115 25 -94 21 -184 39 -245 50 -36 6
-84 16 -107 21 -22 5 -70 13 -105 19 -34 5 -103 17 -153 25 -90 15 -132 21
-340 50 -210 30 -479 57 -730 75 -77 5 -234 17 -350 26 -234 19 -1131 28
-1270 14z"/>
<path d="M18385 32414 c-504 -12 -1234 -82 -1765 -170 -52 -9 -185 -29 -295
-45 -110 -16 -207 -31 -215 -34 -8 -2 -121 -20 -250 -40 -129 -19 -338 -51
-465 -70 -126 -20 -329 -51 -450 -70 -238 -36 -546 -84 -910 -140 -126 -20
-329 -51 -450 -70 -818 -126 -926 -143 -932 -149 -2 -2 5 -57 16 -123 20 -116
54 -336 112 -728 16 -110 31 -207 34 -215 2 -8 21 -123 41 -255 19 -132 51
-341 70 -465 19 -124 50 -324 69 -445 18 -121 50 -326 70 -455 20 -129 52
-336 71 -460 19 -124 50 -326 70 -450 19 -124 50 -326 69 -450 19 -124 50
-326 69 -450 20 -124 52 -331 71 -460 20 -129 52 -332 70 -450 69 -448 107
-692 140 -905 19 -121 50 -326 70 -455 20 -129 51 -334 70 -455 50 -324 82
-534 105 -675 11 -69 31 -201 45 -295 14 -93 31 -206 39 -250 8 -44 22 -140
32 -213 10 -72 21 -137 25 -143 5 -9 45 -6 145 9 168 26 505 78 824 127 236
36 475 73 910 140 129 20 332 51 450 70 118 18 307 47 420 64 229 35 448 69
680 106 85 14 229 36 320 49 182 27 399 61 680 106 102 16 223 34 270 40 47 6
106 15 133 20 26 6 122 21 213 35 388 59 827 166 1164 283 837 291 1517 761
2000 1380 347 445 591 954 730 1522 37 151 94 497 112 675 17 176 17 803 0
1005 -18 205 -73 596 -112 790 -287 1444 -1014 2382 -2189 2827 -574 216
-1218 323 -2026 336 -126 2 -284 2 -350 1z"/>
<path d="M21065 18159 c-540 -21 -1225 -93 -1940 -203 -121 -19 -326 -51 -455
-71 -326 -51 -645 -100 -910 -140 -124 -19 -326 -50 -450 -70 -567 -88 -1052
-162 -1365 -210 -121 -18 -247 -38 -280 -44 -33 -6 -134 -22 -225 -35 -580
-87 -586 -88 -576 -104 2 -4 16 -91 30 -192 15 -102 31 -207 36 -235 6 -27 24
-142 41 -255 17 -113 46 -302 64 -420 18 -118 49 -318 69 -445 19 -126 51
-333 71 -460 19 -126 51 -336 70 -465 20 -129 38 -242 40 -250 3 -8 18 -107
35 -220 17 -113 46 -304 64 -425 19 -121 48 -312 65 -425 17 -113 38 -243 46
-290 8 -47 29 -177 46 -290 38 -254 120 -788 204 -1330 43 -276 95 -613 140
-910 34 -220 50 -319 140 -905 20 -126 52 -333 71 -460 20 -126 51 -327 69
-445 18 -118 49 -320 69 -448 20 -127 52 -337 72 -465 19 -127 50 -329 69
-447 18 -118 49 -318 68 -445 65 -424 79 -510 82 -513 1 -1 47 4 101 13 201
31 587 91 1169 180 94 14 224 35 290 46 66 10 194 30 285 44 286 43 642 97
1075 165 105 17 249 39 320 49 168 25 420 64 615 96 85 14 232 37 325 51 217
32 570 86 845 129 118 18 321 50 450 69 129 20 336 52 460 71 427 66 543 89
875 171 631 156 1207 401 1695 721 844 554 1449 1367 1748 2348 193 631 269
1324 232 2090 -31 618 -163 1437 -316 1955 -39 130 -113 359 -134 415 -97 253
-138 351 -198 480 -74 158 -190 375 -260 485 -22 36 -53 85 -68 110 -44 71
-201 286 -283 385 -166 201 -440 462 -646 617 -404 304 -835 509 -1440 687
-255 75 -661 151 -1020 191 -507 57 -987 72 -1580 49z"/>
</g>
</svg>
